<mxfile host="65bd71144e">
    <diagram name="第 1 页" id="N6iN6V0hHzY832mEbOhE">
        <mxGraphModel dx="1497" dy="1081" grid="1" gridSize="10" guides="1" tooltips="1" connect="0" arrows="1" fold="1" page="0" pageScale="1" pageWidth="827" pageHeight="1169" math="0" shadow="0">
            <root>
                <mxCell id="0"/>
                <mxCell id="1" parent="0"/>
                <mxCell id="pp8-QFKgKfyrIBCOwYfq-482" value="" style="rounded=1;whiteSpace=wrap;html=1;fillColor=#f9f7ed;strokeColor=#000000;fontStyle=4;arcSize=14;" parent="1" vertex="1">
                    <mxGeometry x="-980" y="-220" width="1250" height="1230" as="geometry"/>
                </mxCell>
                <mxCell id="pp8-QFKgKfyrIBCOwYfq-484" value="&lt;font size=&quot;1&quot; color=&quot;#000000&quot; style=&quot;&quot;&gt;&lt;b style=&quot;font-size: 100px;&quot;&gt;BPU&lt;/b&gt;&lt;/font&gt;" style="text;html=1;align=center;verticalAlign=middle;resizable=0;points=[];autosize=1;strokeColor=none;fillColor=none;fontSize=60;" parent="1" vertex="1">
                    <mxGeometry x="-125" y="-190" width="230" height="130" as="geometry"/>
                </mxCell>
                <mxCell id="auRPPHbOvDZTyeZEAKgO-241" style="edgeStyle=orthogonalEdgeStyle;rounded=0;orthogonalLoop=1;jettySize=auto;html=1;exitX=0.836;exitY=1.014;exitDx=0;exitDy=0;exitPerimeter=0;startArrow=none;" parent="1" source="pp8-QFKgKfyrIBCOwYfq-14" edge="1">
                    <mxGeometry relative="1" as="geometry">
                        <mxPoint x="-481" y="-7" as="sourcePoint"/>
                        <mxPoint x="-481" y="25" as="targetPoint"/>
                    </mxGeometry>
                </mxCell>
                <mxCell id="211" value="" style="rounded=1;whiteSpace=wrap;html=1;fontSize=30;fontColor=#9999FF;labelBackgroundColor=none;textOpacity=30;align=center;fillColor=#FFCCE6;" parent="1" vertex="1">
                    <mxGeometry x="-845" y="-120" width="590" height="460" as="geometry"/>
                </mxCell>
                <mxCell id="216" value="Branch&lt;br&gt;History" style="edgeStyle=none;html=1;labelBackgroundColor=none;strokeColor=#000000;fontSize=30;fontColor=#000000;" parent="1" source="pp8-QFKgKfyrIBCOwYfq-14" target="215" edge="1">
                    <mxGeometry relative="1" as="geometry">
                        <mxPoint as="offset"/>
                    </mxGeometry>
                </mxCell>
                <mxCell id="pp8-QFKgKfyrIBCOwYfq-14" value="&lt;b style=&quot;&quot;&gt;&lt;font style=&quot;font-size: 54px;&quot; color=&quot;#000000&quot;&gt;BHT&lt;/font&gt;&lt;/b&gt;" style="rounded=1;whiteSpace=wrap;html=1;fillColor=#fad9d5;strokeColor=#000000;direction=east;flipV=0;fontSize=18;" parent="1" vertex="1">
                    <mxGeometry x="-810" y="-60" width="180" height="350" as="geometry"/>
                </mxCell>
                <mxCell id="215" value="&lt;b style=&quot;&quot;&gt;&lt;font style=&quot;font-size: 54px;&quot; color=&quot;#000000&quot;&gt;PHT&lt;/font&gt;&lt;/b&gt;" style="rounded=1;whiteSpace=wrap;html=1;fillColor=#fad9d5;strokeColor=#000000;direction=east;flipV=0;fontSize=18;" parent="1" vertex="1">
                    <mxGeometry x="-470" y="-60" width="180" height="350" as="geometry"/>
                </mxCell>
                <mxCell id="219" style="edgeStyle=orthogonalEdgeStyle;rounded=0;orthogonalLoop=1;jettySize=auto;html=1;exitX=0.836;exitY=1.014;exitDx=0;exitDy=0;exitPerimeter=0;startArrow=none;" parent="1" source="224" edge="1">
                    <mxGeometry relative="1" as="geometry">
                        <mxPoint x="-481" y="532" as="sourcePoint"/>
                        <mxPoint x="-481" y="564" as="targetPoint"/>
                    </mxGeometry>
                </mxCell>
                <mxCell id="222" value="" style="rounded=1;whiteSpace=wrap;html=1;fontSize=30;fontColor=#9999FF;labelBackgroundColor=none;textOpacity=30;align=center;fillColor=#99FFCC;" parent="1" vertex="1">
                    <mxGeometry x="-845" y="419" width="590" height="460" as="geometry"/>
                </mxCell>
                <mxCell id="223" value="&lt;font color=&quot;#000000&quot;&gt;is CALL?&lt;br&gt;is Return?&lt;/font&gt;" style="edgeStyle=none;html=1;labelBackgroundColor=none;strokeColor=#000000;fontSize=30;fontColor=#9999FF;" parent="1" source="224" target="225" edge="1">
                    <mxGeometry y="75" relative="1" as="geometry">
                        <mxPoint as="offset"/>
                    </mxGeometry>
                </mxCell>
                <mxCell id="231" value="is Branch?" style="edgeStyle=none;jumpSize=11;html=1;labelBackgroundColor=none;strokeColor=#000000;fontSize=27;fontColor=#000000;exitX=0.503;exitY=-0.003;exitDx=0;exitDy=0;exitPerimeter=0;entryX=0.494;entryY=0.999;entryDx=0;entryDy=0;entryPerimeter=0;" parent="1" source="224" target="211" edge="1">
                    <mxGeometry x="0.2736" y="-74" relative="1" as="geometry">
                        <mxPoint x="-550" y="340" as="targetPoint"/>
                        <mxPoint as="offset"/>
                    </mxGeometry>
                </mxCell>
                <mxCell id="224" value="&lt;b style=&quot;&quot;&gt;&lt;font style=&quot;font-size: 54px;&quot; color=&quot;#000000&quot;&gt;BTB&lt;/font&gt;&lt;/b&gt;" style="rounded=1;whiteSpace=wrap;html=1;fillColor=#99CCFF;strokeColor=#000000;direction=east;flipV=0;fontSize=18;" parent="1" vertex="1">
                    <mxGeometry x="-810" y="479" width="510" height="141" as="geometry"/>
                </mxCell>
                <mxCell id="225" value="&lt;b style=&quot;&quot;&gt;&lt;font style=&quot;font-size: 54px;&quot; color=&quot;#000000&quot;&gt;RAS&lt;/font&gt;&lt;/b&gt;" style="rounded=1;whiteSpace=wrap;html=1;fillColor=#99CCFF;strokeColor=#000000;direction=east;flipV=0;fontSize=18;" parent="1" vertex="1">
                    <mxGeometry x="-810" y="700" width="510" height="141" as="geometry"/>
                </mxCell>
                <mxCell id="227" value="&lt;font style=&quot;font-size: 37px;&quot;&gt;pc&lt;/font&gt;" style="endArrow=classic;html=1;labelBackgroundColor=none;strokeColor=#000000;fontSize=30;fontColor=#000000;jumpSize=11;" parent="1" target="pp8-QFKgKfyrIBCOwYfq-14" edge="1">
                    <mxGeometry x="0.1051" y="18" width="50" height="50" relative="1" as="geometry">
                        <mxPoint x="-1100" y="115" as="sourcePoint"/>
                        <mxPoint x="-630" y="300" as="targetPoint"/>
                        <mxPoint as="offset"/>
                    </mxGeometry>
                </mxCell>
                <mxCell id="229" value="&lt;font style=&quot;font-size: 37px;&quot;&gt;pc&lt;/font&gt;" style="endArrow=classic;html=1;labelBackgroundColor=none;strokeColor=#000000;fontSize=30;fontColor=#000000;jumpSize=11;" parent="1" edge="1">
                    <mxGeometry x="0.1051" y="18" width="50" height="50" relative="1" as="geometry">
                        <mxPoint x="-1100" y="550" as="sourcePoint"/>
                        <mxPoint x="-810" y="550" as="targetPoint"/>
                        <Array as="points"/>
                        <mxPoint as="offset"/>
                    </mxGeometry>
                </mxCell>
                <mxCell id="232" value="" style="shape=flexArrow;endArrow=classic;html=1;labelBackgroundColor=none;strokeColor=#FF3333;fontSize=27;fontColor=#000000;jumpSize=11;exitX=0.996;exitY=0.526;exitDx=0;exitDy=0;exitPerimeter=0;fillColor=#FF3333;gradientColor=none;" parent="1" source="211" edge="1">
                    <mxGeometry width="50" height="50" relative="1" as="geometry">
                        <mxPoint x="-160" y="170" as="sourcePoint"/>
                        <mxPoint x="-110" y="120" as="targetPoint"/>
                    </mxGeometry>
                </mxCell>
                <mxCell id="234" value="" style="shape=flexArrow;endArrow=classic;html=1;labelBackgroundColor=none;strokeColor=#FF3333;fontSize=27;fontColor=#000000;jumpSize=11;exitX=0.996;exitY=0.526;exitDx=0;exitDy=0;exitPerimeter=0;fillColor=#FF3333;gradientColor=none;" parent="1" edge="1">
                    <mxGeometry width="50" height="50" relative="1" as="geometry">
                        <mxPoint x="-255.0000000000001" y="661.96" as="sourcePoint"/>
                        <mxPoint x="-107.64" y="660" as="targetPoint"/>
                    </mxGeometry>
                </mxCell>
                <mxCell id="238" value="&lt;font color=&quot;#ff3333&quot; style=&quot;font-size: 65px;&quot;&gt;Direction&lt;/font&gt;" style="text;html=1;strokeColor=none;fillColor=none;align=center;verticalAlign=middle;whiteSpace=wrap;rounded=0;labelBackgroundColor=none;labelBorderColor=none;fontSize=27;fontColor=#000000;" parent="1" vertex="1">
                    <mxGeometry x="20" y="100" width="60" height="30" as="geometry"/>
                </mxCell>
                <mxCell id="239" value="&lt;font color=&quot;#ff3333&quot; style=&quot;font-size: 65px;&quot;&gt;Target&lt;/font&gt;" style="text;html=1;strokeColor=none;fillColor=none;align=center;verticalAlign=middle;whiteSpace=wrap;rounded=0;labelBackgroundColor=none;labelBorderColor=none;fontSize=27;fontColor=#000000;" parent="1" vertex="1">
                    <mxGeometry x="20" y="640" width="60" height="30" as="geometry"/>
                </mxCell>
                <mxCell id="240" value="&lt;div style=&quot;color: rgb(204, 204, 204); background-color: rgb(31, 31, 31); font-family: Consolas, &amp;quot;Courier New&amp;quot;, monospace; font-weight: normal; font-size: 15px; line-height: 20px;&quot;&gt;&lt;div&gt;&lt;span style=&quot;color: #569cd6;&quot;&gt;&amp;amp;emsp;&amp;amp;emsp;&lt;/span&gt;&lt;/div&gt;&lt;/div&gt;" style="text;whiteSpace=wrap;html=1;" vertex="1" parent="1">
                    <mxGeometry x="-1100" y="-230" width="130" height="40" as="geometry"/>
                </mxCell>
            </root>
        </mxGraphModel>
    </diagram>
</mxfile>